<?xml version="1.0" standalone="no"?><!DOCTYPE svg PUBLIC "-//W3C//DTD SVG 1.1//EN" "http://www.w3.org/Graphics/SVG/1.1/DTD/svg11.dtd"><svg t="1672936319882" class="icon" viewBox="0 0 1024 1024" version="1.1" xmlns="http://www.w3.org/2000/svg" p-id="4620" xmlns:xlink="http://www.w3.org/1999/xlink" width="32" height="32"><path d="M511.600312 511.600312m-511.600312 0a511.600312 511.600312 0 1 0 1023.200625 0 511.600312 511.600312 0 1 0-1023.200625 0Z" fill="#6AE5E1" p-id="4621"></path><path d="M510.800937 701.052303c-23.181889 0-42.366901 21.583138-42.366901 47.962529v272.587042c13.589383 0.799375 27.978142 1.598751 41.567525 1.598751 14.388759 0 29.576893-0.799375 43.965652-1.598751V749.014832c-0.799375-26.379391-19.984387-47.962529-43.166276-47.962529z" fill="#FFFFFF" p-id="4622"></path><path d="M510.800937 701.052303c-23.181889 0-42.366901 21.583138-42.366901 47.962529v59.153786c13.589383 1.598751 27.178767 3.197502 41.567525 3.197502 15.188134 0 29.576893-0.799375 43.965652-3.197502v-58.35441c-0.799375-27.178767-19.984387-48.761905-43.166276-48.761905zM510.001561 977.636222c-14.388759 0-27.978142-0.799375-41.567525-1.598751v46.363778c13.589383 0.799375 27.978142 1.598751 41.567525 1.598751 14.388759 0 29.576893-0.799375 43.965652-1.598751V975.238095c-15.188134 1.598751-29.576893 2.398126-43.965652 2.398127z" fill="#EAEAEA" p-id="4623"></path><path d="M510.800937 693.058548c-27.978142 0-47.163154 24.78064-47.163154 55.956284V1015.20687c5.595628 0.799375 10.391881 6.395004 15.98751 7.194379V749.014832c0-22.382514 11.990632-39.968774 31.175644-39.968774s32.774395 17.586261 32.774395 39.968774v273.386417c5.595628 0 10.391881-0.799375 15.98751-1.598751v-271.787666c0-31.175644-20.783763-55.956284-48.761905-55.956284z" fill="#663210" p-id="4624"></path><path d="M509.202186 470.832162m-303.762686 0a303.762685 303.762685 0 1 0 607.525371 0 303.762685 303.762685 0 1 0-607.525371 0Z" fill="#FC7296" p-id="4625"></path><path d="M509.202186 676.271663c-151.081967 0-275.784543-110.313817-299.765808-254.201405-2.398126 15.98751-3.996877 32.774395-3.996878 49.56128 0 167.868852 135.893833 303.762685 303.762686 303.762685s303.762685-135.893833 303.762685-303.762685c0-16.786885-1.598751-33.57377-3.996877-49.56128-23.181889 143.887588-148.683841 254.201405-299.765808 254.201405z" fill="#ED6489" p-id="4626"></path><path d="M492.415301 745.017955c-14.388759 0-29.576893-0.799375-44.765028-3.197502C348.527713 727.431694 261.395785 666.679157 219.028884 583.544106c-1.598751-3.996877-0.799375-8.79313 3.197502-10.391881 3.996877-1.598751 8.79313-0.799375 10.391881 3.197502 39.169399 78.338798 122.30445 135.893833 216.630757 149.483216 83.135051 12.790008 161.473849-11.990632 214.232631-67.147541 78.338798-82.335675 90.32943-207.837627 27.978142-298.167057-32.774395-48.761905-85.533177-82.335675-143.887588-91.128806-54.357533-7.993755-108.715066 5.595628-151.881342 39.968775-76.740047 60.752537-94.326308 163.871975-40.76815 239.812646 34.373146 47.962529 99.12256 75.940671 158.276346 66.348166 47.962529-7.194379 82.335675-36.771272 97.52381-83.934427 14.388759-45.564403 0-103.918813-35.172522-135.094457-26.379391-23.981265-59.953162-27.978142-94.326307-12.790008-22.382514 9.592506-37.570648 26.379391-44.765028 46.363778-6.395004 18.385636-3.996877 38.370023 5.595629 56.75566 5.595628 9.592506 15.188134 16.786885 27.178766 19.984387 11.990632 3.197502 25.580016 0.799375 33.573771-4.796253 8.79313-5.595628 13.589383-15.188134 13.589383-23.981264s-4.796253-15.98751-12.790008-21.583138c-3.996877-2.398126-4.796253-7.194379-2.398126-11.191257 2.398126-3.996877 7.194379-4.796253 11.191257-2.398127 12.790008 8.79313 19.984387 20.783763 19.984387 34.373146 0 14.388759-7.993755 28.777518-20.783763 37.570648-11.990632 7.993755-29.576893 10.391881-46.363778 7.19438-15.98751-3.996877-29.576893-13.589383-36.771272-27.978142-11.990632-22.382514-14.388759-46.363778-7.19438-69.545668 7.993755-24.78064 27.178767-44.765027 53.558158-55.956284 40.76815-18.385636 80.736924-12.790008 111.912568 15.188134 39.968774 35.971897 55.956284 99.12256 39.169399 151.881343-16.786885 52.758782-55.956284 86.332553-110.313817 95.125683-64.749415 9.592506-135.893833-19.984387-173.464481-73.542545-59.153786-83.135051-39.968774-195.846995 43.965652-261.395784 47.163154-36.771272 104.718189-51.959407 163.871975-43.166277 62.351288 9.592506 119.106948 45.564403 155.078844 98.323185C771.397346 447.650273 759.406714 581.945355 675.472287 669.077283c-46.363778 49.56128-111.912568 75.940671-183.056986 75.940672z" fill="#663210" p-id="4627"></path><path d="M509.202186 782.588603c-171.86573 0-311.75644-139.89071-311.75644-311.756441s139.89071-311.75644 311.75644-311.75644 311.75644 139.89071 311.75644 311.75644-139.89071 311.75644-311.75644 311.756441z m0-607.525371c-163.0726 0-295.768931 132.696331-295.768931 295.76893s132.696331 295.768931 295.768931 295.768931 295.768931-132.696331 295.76893-295.768931-132.696331-295.768931-295.76893-295.76893z" fill="#663210" p-id="4628"></path><path d="M476.427791 667.478532c-71.144418 0-141.489461-32.774395-179.06011-86.332552-71.144418-100.721311-47.962529-236.615144 52.758783-315.753318 56.75566-44.765027 127.100703-63.150664 198.245121-51.959407 75.141296 11.191257 143.887588 54.357533 187.853239 118.307572 44.765027 64.749415 61.551913 143.887588 47.163154 223.025762-0.799375 3.996877-4.796253 7.194379-9.592506 6.395004-3.996877-0.799375-7.194379-4.796253-6.395004-9.592506 13.589383-75.141296-2.398126-150.282592-44.765027-211.834505-41.567525-59.953162-106.31694-100.721311-177.461358-111.912568-67.147541-10.391881-133.495706 7.194379-186.254489 48.761905-94.326308 74.34192-115.909446 200.643247-49.56128 294.170179 39.968774 56.75566 121.505074 88.730679 198.245121 76.740047 65.54879-7.993755 113.511319-47.962529 131.896955-106.31694 17.586261-54.357533-2.398126-123.903201-47.962529-164.67135-35.172521-32.774395-79.937549-39.169399-124.702576-19.185012-26.379391 11.990632-47.163154 34.373146-55.956284 63.150664-8.79313 26.379391-7.194379 55.156909 5.595628 77.539422 2.398126 3.996877 0.799375 8.79313-3.197502 11.191257-3.996877 2.398126-8.79313 0.799375-11.191257-3.197502-14.388759-26.379391-16.786885-59.153786-6.395003-90.32943 11.191257-32.774395 34.373146-59.153786 64.749414-71.943794 50.360656-22.382514 102.320062-14.388759 142.288837 22.382513 49.56128 44.765027 71.943794 120.705699 51.959407 181.458236-20.783763 64.749415-73.542545 107.915691-144.686964 119.106948-11.191257 0-22.382514 0.799375-33.57377 0.799375z" fill="#FFFFFF" p-id="4629"></path><path d="M545.973458 593.136612c-2.398126 0-4.796253-0.799375-6.395004-3.197502-2.398126-3.197502-2.398126-8.79313 1.598751-11.191257 80.736924-62.351288 28.777518-137.492584 26.379391-140.690086-2.398126-3.197502-1.598751-8.79313 1.598751-11.191256 3.197502-2.398126 8.79313-1.598751 11.191257 1.598751 22.382514 31.175644 44.765027 105.517564-29.576893 163.072599-1.598751 1.598751-3.197502 1.598751-4.796253 1.598751zM482.822795 602.729118c-59.953162 0-91.928181-38.370023-93.526932-39.968775-2.398126-3.197502-2.398126-8.79313 0.799375-11.191256 3.197502-2.398126 8.79313-2.398126 11.191257 0.799375 1.598751 1.598751 34.373146 40.76815 96.724434 32.774395 3.996877-0.799375 7.993755 2.398126 8.79313 7.19438 0.799375 3.996877-2.398126 7.993755-7.194379 8.79313-4.796253 0.799375-11.191257 1.598751-16.786885 1.598751zM489.217799 494.014052c-1.598751 0-3.197502-0.799375-4.796253-1.598751-3.197502-2.398126-3.996877-7.993755-1.598751-11.191257 2.398126-3.996877 3.996877-7.194379 3.197502-9.592506-1.598751-5.595628-10.391881-9.592506-12.790008-10.391881-3.996877-1.598751-6.395004-5.595628-4.796253-10.391882 1.598751-3.996877 5.595628-6.395004 10.391881-4.796253 1.598751 0.799375 18.385636 6.395004 23.181889 20.783763 1.598751 5.595628 2.398126 13.589383-4.796253 23.981265-2.398126 1.598751-4.796253 3.197502-7.993754 3.197502zM703.450429 541.976581s-0.799375-0.799375 0 0c-4.796253-0.799375-7.993755-3.996877-7.993755-8.793131 15.188134-177.461358-115.11007-223.825137-120.705698-225.423887-3.996877-1.598751-6.395004-5.595628-4.796253-10.391882 1.598751-3.996877 5.595628-6.395004 10.391881-4.796252 1.598751 0 147.08509 51.959407 131.09758 241.411397 0 4.796253-3.996877 7.993755-7.993755 7.993755zM475.628415 721.03669c-4.796253 0-7.993755-3.197502-7.993755-7.993755s3.197502-7.993755 7.993755-7.993755c0.799375 0 112.711944-0.799375 165.470726-64.749414 2.398126-3.197502 7.993755-3.996877 11.191257-0.799376 3.197502 3.197502 3.996877 7.993755 0.799376 11.191257-56.75566 69.545667-172.665105 70.345043-177.461359 70.345043zM871.319282 379.703357c-19.185012 0-34.373146-15.188134-34.373146-34.373146s15.188134-34.373146 34.373146-34.373146 34.373146 15.188134 34.373146 34.373146-15.188134 34.373146-34.373146 34.373146z m0-51.959407c-10.391881 0-18.385636 7.993755-18.385636 18.385636 0 10.391881 7.993755 18.385636 18.385636 18.385636 10.391881 0 18.385636-7.993755 18.385636-18.385636 0-10.391881-7.993755-18.385636-18.385636-18.385636zM887.306792 679.469165c-19.185012 0-34.373146-15.188134-34.373146-34.373146s15.188134-34.373146 34.373146-34.373146 34.373146 15.188134 34.373146 34.373146-15.188134 34.373146-34.373146 34.373146z m0-51.959407c-10.391881 0-18.385636 7.993755-18.385637 18.385636 0 10.391881 7.993755 18.385636 18.385637 18.385636 10.391881 0 18.385636-7.993755 18.385636-18.385636 0-10.391881-7.993755-18.385636-18.385636-18.385636zM131.896956 679.469165c-19.185012 0-34.373146-15.188134-34.373146-34.373146s15.188134-34.373146 34.373146-34.373146 34.373146 15.188134 34.373145 34.373146-15.188134 34.373146-34.373145 34.373146z m0-51.959407c-10.391881 0-18.385636 7.993755-18.385637 18.385636 0 10.391881 7.993755 18.385636 18.385637 18.385636 10.391881 0 18.385636-7.993755 18.385636-18.385636 0-10.391881-7.993755-18.385636-18.385636-18.385636zM219.028884 241.411397c0-3.197502-3.197502-6.395004-7.993755-7.194379l-15.188134-2.398127c-3.996877-0.799375-8.79313-4.796253-8.793131-8.79313l-2.398126-15.188134c-0.799375-3.996877-3.996877-7.993755-7.19438-7.993755s-6.395004 3.197502-7.194379 7.993755l-2.398127 15.188134c-0.799375 3.996877-4.796253 8.79313-8.79313 8.79313l-15.188134 2.398127c-3.996877 0.799375-7.993755 3.996877-7.993755 7.194379s3.197502 6.395004 7.993755 7.19438l15.188134 2.398126c3.996877 0.799375 8.79313 4.796253 8.79313 8.793131l2.398127 15.188134c0.799375 3.996877 3.996877 7.993755 7.194379 7.993755s6.395004-3.197502 6.395004-7.993755l2.398127-16.786885c0.799375-3.996877 4.796253-7.993755 8.79313-8.793131l14.388759-0.799375c6.395004-0.799375 9.592506-3.996877 9.592506-7.19438zM750.613583 840.943013c0-3.197502-3.197502-6.395004-7.993755-7.194379L727.431694 831.350507c-3.996877-0.799375-8.79313-4.796253-8.79313-8.79313l-2.398127-15.188134c-0.799375-3.996877-3.996877-7.993755-7.194379-7.993755s-6.395004 3.197502-7.19438 7.993755l-2.398126 15.188134c-0.799375 3.996877-4.796253 8.79313-8.79313 8.79313l-15.188135 2.398127c-3.996877 0.799375-7.993755 3.996877-7.993755 7.194379s3.197502 6.395004 7.993755 7.19438l15.188135 2.398126c3.996877 0.799375 8.79313 4.796253 8.79313 8.79313l2.398126 15.188135c0.799375 3.996877 3.996877 7.993755 7.19438 7.993755s6.395004-3.197502 6.395004-7.993755l2.398126-16.786885c0.799375-3.996877 4.796253-7.993755 8.793131-8.793131l14.388758-0.799375c6.395004-0.799375 9.592506-3.996877 9.592506-7.19438zM338.935207 816.961749c0-3.197502-3.197502-6.395004-7.993755-7.19438l-15.188134-2.398126c-3.996877-0.799375-8.79313-4.796253-8.793131-8.793131l-2.398126-15.188134c-0.799375-3.996877-3.996877-7.993755-7.19438-7.993755s-6.395004 3.197502-7.194379 7.993755l-2.398126 15.188134c-0.799375 3.996877-4.796253 8.79313-8.793131 8.793131l-15.188134 2.398126c-3.996877 0.799375-7.993755 3.996877-7.993755 7.19438s3.197502 6.395004 7.993755 7.194379l15.188134 2.398126c3.996877 0.799375 8.79313 4.796253 8.793131 8.793131l2.398126 15.188134c0.799375 3.996877 3.996877 7.993755 7.194379 7.993755s6.395004-3.197502 6.395004-7.993755l2.398127-16.786885c0.799375-3.996877 4.796253-7.993755 8.79313-8.79313l14.388759-0.799376c6.395004-0.799375 9.592506-3.996877 9.592506-7.194379zM733.027322 203.840749c0-3.197502-3.197502-6.395004-7.993754-7.194379l-37.570648-7.194379c-3.996877-0.799375-8.79313-4.796253-9.592506-9.592506l-6.395004-37.570648c-0.799375-3.996877-3.996877-7.993755-7.19438-7.993755s-6.395004 3.197502-7.194379 7.993755l-6.395004 38.370023c-0.799375 3.996877-4.796253 8.79313-9.592506 9.592506l-38.370023 6.395004c-3.996877 0.799375-7.993755 3.996877-7.993755 7.194379s3.197502 6.395004 7.993755 7.19438l37.570648 4.796253c3.996877 0.799375 8.79313 4.796253 9.592506 8.79313l7.194379 39.968774c0.799375 3.996877 3.996877 7.993755 7.194379 7.993755s6.395004-3.197502 7.19438-7.993755l7.194379-40.768149c0.799375-3.996877 4.796253-7.993755 9.592506-8.793131l37.570648-4.796253c3.996877 0 7.194379-3.197502 7.194379-6.395004z" fill="#FFFFFF" p-id="4630"></path></svg>